<?xml version="1.0" encoding="UTF-8"?>
<svg version="1.1" xmlns="http://www.w3.org/2000/svg" width="1920" height="1080">
<path d="M0 0 C8.38216767 0.4093997 16.76564668 0.60203159 25.15538669 0.7813375 C42.35426983 1.15353163 59.53367157 1.78276448 76.71739697 2.5929873 C76.30935582 3.0562498 75.90131467 3.5195123 75.48090863 3.99681306 C74.94354329 4.613795 74.40617795 5.23077695 73.85252881 5.86645532 C73.32073766 6.47409282 72.7889465 7.08173032 72.24104047 7.70778108 C70.80946453 9.47907198 69.66683599 11.23422074 68.5552876 13.21749902 C61.89058898 25.09946568 52.90998242 36.01082565 39.71739697 40.5929873 C22.75595133 44.0547172 4.17815094 42.54462482 -12.98323989 41.56585431 C-16.75232956 41.35771565 -20.52304126 41.20225234 -24.29458308 41.04585099 C-27.65888196 40.86627582 -31.00380474 40.54390788 -34.3528688 40.17921567 C-38.35727175 40.17554011 -42.32463082 40.98494734 -46.28260303 41.5929873 C-51.56260303 46.8729873 -56.84260303 52.1529873 -62.28260303 57.5929873 C-25.65260303 57.9229873 10.97739697 58.2529873 48.71739697 58.5929873 C49.89302197 71.5248623 49.89302197 71.5248623 51.09239697 84.7179873 C51.43834912 87.34783593 51.78430127 89.97768456 52.14073682 92.68722558 C53.24725779 107.04985096 48.95726957 117.0141808 39.88770533 127.84467554 C26.0997215 143.43771289 13.13273762 155.73872425 -8.30501819 157.6255877 C-19.01610844 158.19483979 -29.67861347 157.91637648 -40.3869803 157.44595695 C-46.84205636 157.20430862 -53.29822027 157.18577901 -59.75712085 157.14099145 C-70.55160381 157.03721576 -81.33542594 156.80186329 -92.12488818 156.45968652 C-103.21421099 156.10837603 -114.30062231 155.84068963 -125.39441943 155.68038964 C-126.42787964 155.6654144 -126.42787964 155.6654144 -127.48221783 155.65013663 C-130.94018867 155.60052868 -134.39817943 155.55251176 -137.85618353 155.50528431 C-166.33899484 155.11424056 -194.80984841 154.43684604 -223.28260303 153.5929873 C-223.28260303 140.7229873 -223.28260303 127.8529873 -223.28260303 114.5929873 C-213.6388042 114.67323144 -213.6388042 114.67323144 -203.80018115 114.75509667 C-182.5382194 114.92030014 -161.2765993 114.99800291 -140.01404071 115.03083062 C-127.1245578 115.05286022 -114.23649493 115.10459769 -101.34754443 115.22726464 C-90.10810689 115.33415637 -78.87006208 115.38429703 -67.6301043 115.36743617 C-61.68264087 115.3604663 -55.73827681 115.38113147 -49.79140735 115.46986413 C-44.18230304 115.55265777 -38.57807999 115.55900537 -32.96863627 115.50911164 C-30.92083801 115.50393465 -28.87274852 115.52564423 -26.8256042 115.57765031 C-25.38609558 115.61206318 -25.38609558 115.61206318 -23.91750598 115.64717126 C-23.08796185 115.67544472 -22.25841771 115.70371818 -21.40373588 115.73284841 C-4.9153751 114.76671747 -6.07343212 111.38381639 7.71739697 97.5929873 C-68.51260303 97.2629873 -144.74260303 96.9329873 -223.28260303 96.5929873 C-223.28260303 84.0529873 -223.28260303 71.5129873 -223.28260303 58.5929873 C-186.32260303 58.5929873 -149.36260303 58.5929873 -111.28260303 58.5929873 C-111.28260303 70.8029873 -111.28260303 83.0129873 -111.28260303 95.5929873 C-108.31260303 95.5929873 -105.34260303 95.5929873 -102.28260303 95.5929873 C-102.36254504 94.95882897 -102.44248706 94.32467065 -102.52485156 93.6712954 C-103.34283279 86.86115786 -103.87150931 80.06520851 -104.26014209 73.21749902 C-104.43765539 70.69318349 -104.68073605 68.17236371 -104.99842334 65.66183496 C-107.03619856 49.09991671 -103.08215954 36.78606635 -92.99671435 23.71749902 C-68.52637598 -5.57478957 -34.72959938 -1.7266884 0 0 Z M-110.84119678 123.43283105 C-111.63034976 124.22951699 -112.41950274 125.02620294 -113.23256946 125.84703088 C-115.74525621 128.39223203 -118.23228398 130.96099803 -120.72010303 133.5304873 C-122.42101502 135.25793812 -124.12347218 136.98386897 -125.8275249 138.70822167 C-128.92384627 141.85488567 -132.01732676 145.00402759 -135.08899951 148.17477441 C-135.70742221 148.81208993 -136.32584491 149.44940545 -136.96300769 150.10603356 C-138.39323002 151.38630209 -138.39323002 151.38630209 -138.28260303 152.5929873 C-134.54956582 153.20988361 -132.43818635 153.38726236 -129.25944018 151.20239282 C-126.99074868 149.1281806 -124.85050258 146.97301449 -122.72400928 144.75314355 C-121.93485629 143.95645761 -121.14570331 143.15977166 -120.33263659 142.33894372 C-117.81994984 139.79374257 -115.33292207 137.22497657 -112.84510303 134.6554873 C-111.14419103 132.92803648 -109.44173387 131.20210563 -107.73768115 129.47775292 C-104.64135978 126.33108893 -101.54787929 123.181947 -98.47620654 120.01120019 C-97.85778384 119.37388467 -97.23936114 118.73656915 -96.60219836 118.07994103 C-95.17197604 116.79967251 -95.17197604 116.79967251 -95.28260303 115.5929873 C-102.83989642 114.34412045 -105.83441389 118.20619252 -110.84119678 123.43283105 Z " fill="#FFFFFF" transform="translate(1193.2826030254364,449.40701270103455)"/>
<path d="M0 0 C0.33 0.66 0.66 1.32 1 2 C2.15631314 1.86081524 2.15631314 1.86081524 3.33598614 1.71881866 C28.2094656 -0.86858969 28.2094656 -0.86858969 38.28394032 7.1792984 C42.60044417 11.16445853 46.58951006 15.38405258 50.55078125 19.71875 C52.31889514 21.54109787 54.09362907 23.35704349 55.8745575 25.16687012 C60.02788878 29.41869298 64.11108027 33.72901671 68.16454238 38.0759902 C74.06474382 44.39354975 80.10152874 50.57855541 86.12166595 56.78153992 C94.50283886 65.44196351 102.73087558 74.22602377 111 83 C111.33 56.27 111.66 29.54 112 2 C124.87 2 137.74 2 151 2 C151 61.07 151 120.14 151 181 C147.2308949 179.11544745 145.34040132 177.58770458 142.41888428 174.65939331 C141.50465698 173.74791534 140.59042969 172.83643738 139.64849854 171.89733887 C138.64285129 170.88461387 137.63730031 169.87179328 136.63183594 168.85888672 C135.5676497 167.79413624 134.50302267 166.72982617 133.43798828 165.66592407 C130.54952425 162.77803402 127.6672696 159.88401759 124.78608227 156.98887014 C121.77342027 153.96370845 118.75509626 150.94420688 115.73736572 147.92410278 C110.02442783 142.20494789 104.31660747 136.4807137 98.61060357 130.75464165 C90.89928967 123.0167964 83.18010412 115.28681233 75.4613533 107.55638695 C63.30111951 95.37734534 51.15144429 83.18782586 39 71 C38.67 98.06 38.34 125.12 38 153 C25.46 153 12.92 153 0 153 C0 102.51 0 52.02 0 0 Z " fill="#FFFFFF" transform="translate(810,450)"/>
<path d="M0 0 C49.83 0 99.66 0 151 0 C151 12.87 151 25.74 151 39 C101.17 39 51.34 39 0 39 C0 26.13 0 13.26 0 0 Z " fill="#FFFFFF" transform="translate(650,564)"/>
<path d="M0 0 C49.83 0 99.66 0 151 0 C151 12.54 151 25.08 151 38 C101.17 38 51.34 38 0 38 C0 25.46 0 12.92 0 0 Z " fill="#FFFFFF" transform="translate(650,452)"/>
<path d="M0 0 C14.59516106 -0.1582348 29.18978676 -0.28708776 43.78561401 -0.3626852 C50.56328111 -0.39872514 57.34037604 -0.44782731 64.11767578 -0.52807617 C70.65990033 -0.60550438 77.20175412 -0.64600776 83.74441528 -0.6641407 C86.23871203 -0.67706057 88.73297679 -0.70229065 91.22702026 -0.7401104 C94.72497416 -0.79103707 98.22048418 -0.79791875 101.71875 -0.79467773 C102.74662125 -0.81984467 103.77449249 -0.8450116 104.83351135 -0.87094116 C111.35448934 -0.80569963 114.68579589 0.52287482 119.30690765 5.16807556 C119.86562813 5.77261063 120.4243486 6.37714569 121 7 C122.15545912 8.12583097 123.3143835 9.24812967 124.47851562 10.36499023 C125.62366443 11.5102935 126.7661865 12.65822835 127.90625 13.80859375 C128.82150452 14.72597069 128.82150452 14.72597069 129.75524902 15.66188049 C131.67256165 17.58471802 133.58633702 19.51103094 135.5 21.4375 C136.81226585 22.75479059 138.12476395 24.07184986 139.4375 25.38867188 C142.62812335 28.58936664 145.81392233 31.79475475 149 35 C149.33 28.73 149.66 22.46 150 16 C150.33 16 150.66 16 151 16 C151 23.26 151 30.52 151 38 C101.17 38 51.34 38 0 38 C0 25.46 0 12.92 0 0 Z " fill="#FFFFFF" transform="translate(650,508)"/>
<path d="M0 0 C49.5 0 99 0 150 0 C148.02 2.31 146.04 4.62 144 7 C142.68976468 8.8193752 141.37974839 10.63897518 140.0852108 12.46955299 C131.64576448 24.10390106 121.33357038 36.51629374 106.70196533 39.65887451 C90.80113779 42.08683656 74.47984604 40.99114103 58.4888916 40.12860107 C51.88024016 39.80695196 45.26857026 39.66897967 38.65429688 39.51367188 C25.75800966 39.18467326 12.88452592 38.64147258 0 38 C0 25.46 0 12.92 0 0 Z " fill="#FFFFFF" transform="translate(970,452)"/>
<path d="M0 0 C0.66 0 1.32 0 2 0 C2 4.95 2 9.9 2 15 C1.67 15 1.34 15 1 15 C0.67 10.05 0.34 5.1 0 0 Z " fill="#FFFFFF" transform="translate(799,508)"/>
</svg>
